<?xml version="1.0" standalone="no"?>
<!DOCTYPE svg PUBLIC "-//W3C//DTD SVG 20010904//EN"
 "http://www.w3.org/TR/2001/REC-SVG-20010904/DTD/svg10.dtd">
<svg version="1.0" xmlns="http://www.w3.org/2000/svg"
 width="160.000000pt" height="160.000000pt" viewBox="0 0 160.000000 160.000000"
 preserveAspectRatio="xMidYMid meet">
<metadata>
Created by potrace 1.14, written by Peter Selinger 2001-2017
</metadata>
<g transform="translate(0.000000,160.000000) scale(0.100000,-0.100000)"
fill="#000000" stroke="none">
<path d="M667 1494 c-4 -4 -7 -23 -7 -43 0 -44 -39 -85 -90 -96 -54 -11 -118
-52 -151 -97 -57 -80 -59 -97 -59 -599 l0 -458 29 -21 c52 -36 134 -68 216
-84 145 -28 488 -7 527 32 10 10 13 126 3 141 -3 6 -12 8 -20 4 -13 -4 -15 11
-15 95 0 96 1 101 23 107 69 20 77 26 77 65 0 35 2 38 34 44 43 8 94 59 102
103 4 19 4 74 2 123 -5 116 -31 157 -129 207 l-66 33 -6 69 c-10 126 -80 211
-193 235 -42 9 -78 52 -84 101 l-5 40 -90 3 c-50 1 -94 0 -98 -4z m153 -67 c0
-24 8 -40 31 -60 52 -46 26 -65 -91 -65 -117 0 -143 19 -91 65 23 20 31 36 31
60 l0 33 60 0 60 0 0 -33z m-220 -117 c0 -26 54 -44 139 -47 98 -3 154 9 173
36 12 17 17 18 52 6 44 -15 91 -56 113 -100 9 -16 18 -63 22 -105 l6 -75 63
-31 c63 -31 112 -69 112 -86 0 -5 -9 -4 -20 2 -14 7 -107 10 -278 8 -239 -3
-259 -4 -284 -23 -15 -11 -34 -34 -43 -52 -20 -40 -20 -149 0 -187 19 -35 19
-36 0 -36 -29 0 -76 31 -95 63 -16 26 -20 50 -20 130 0 62 5 110 14 132 16 37
68 75 104 75 16 0 22 6 22 21 0 19 -4 21 -40 16 -53 -7 -98 -41 -121 -91 -14
-32 -19 -65 -19 -146 0 -122 17 -172 71 -211 34 -24 37 -24 312 -27 l278 -3
-3 -26 c-5 -45 -67 -55 -354 -58 -188 -2 -224 -5 -247 -19 -38 -26 -59 -63
-59 -110 -2 -85 59 -149 154 -164 100 -16 336 -5 418 18 31 9 31 9 28 -28 -3
-35 -5 -38 -53 -50 -32 -9 -114 -15 -225 -15 -194 -2 -273 11 -365 61 l-50 27
-3 450 c-2 395 0 455 14 499 26 76 105 147 177 155 4 1 7 -3 7 -9z m250 -443
c64 -32 88 -127 47 -187 -31 -47 -62 -62 -120 -57 -54 5 -82 26 -92 70 -6 23
-4 27 14 27 17 0 21 6 21 30 0 24 -4 30 -21 30 -18 0 -20 4 -14 27 8 34 23 53
50 63 30 13 87 11 115 -3z m268 -7 c59 -36 78 -118 42 -178 -40 -66 -131 -80
-180 -27 -20 21 -23 35 -23 95 0 55 4 75 19 91 38 43 91 50 142 19z m126 10
c14 -5 32 -23 41 -39 18 -36 20 -119 3 -156 -14 -31 -55 -55 -93 -55 l-26 0
23 33 c18 25 23 45 23 97 0 52 -5 72 -23 98 l-23 32 25 0 c13 0 36 -4 50 -10z
m-604 -465 c9 0 16 11 18 25 3 24 5 25 62 22 51 -3 59 -6 62 -25 4 -29 32 -28
36 1 3 20 9 22 62 22 53 0 59 -2 62 -22 4 -31 31 -29 38 2 5 20 13 26 43 28
l37 3 0 -103 0 -104 -39 -2 c-34 -2 -40 0 -43 20 -4 33 -32 29 -36 -4 -3 -23
-9 -28 -30 -29 -15 -1 -40 -2 -57 -3 -26 -1 -31 3 -35 29 -3 18 -11 30 -20 30
-9 0 -17 -12 -20 -30 -4 -26 -9 -30 -35 -29 -85 3 -84 3 -87 32 -4 34 -30 36
-38 3 l-6 -25 -32 30 c-44 39 -56 92 -31 134 11 17 29 34 42 39 19 7 23 5 27
-18 3 -14 12 -26 20 -26z"/>
<path d="M744 1409 c-10 -17 13 -36 27 -22 12 12 4 33 -11 33 -5 0 -12 -5 -16
-11z"/>
<path d="M722 1033 c4 -21 33 -25 33 -3 0 8 -8 16 -18 18 -14 3 -18 -1 -15
-15z"/>
<path d="M800 1025 c-10 -12 -9 -16 3 -21 21 -8 37 3 30 21 -7 19 -17 19 -33
0z"/>
<path d="M1030 1020 c0 -11 6 -20 14 -20 21 0 31 21 15 31 -22 14 -29 11 -29
-11z"/>
<path d="M874 1019 c-3 -6 -2 -15 4 -21 13 -13 32 -2 32 18 0 16 -26 19 -36 3z"/>
<path d="M952 1013 c4 -21 33 -25 33 -3 0 8 -8 16 -18 18 -14 3 -18 -1 -15
-15z"/>
<path d="M1002 753 c2 -22 9 -29 31 -31 24 -3 27 0 27 27 0 28 -3 31 -31 31
-27 0 -30 -3 -27 -27z"/>
<path d="M624 359 c-10 -17 13 -36 27 -22 12 12 4 33 -11 33 -5 0 -12 -5 -16
-11z"/>
<path d="M784 359 c-10 -17 13 -36 27 -22 12 12 4 33 -11 33 -5 0 -12 -5 -16
-11z"/>
<path d="M944 359 c-10 -17 13 -36 27 -22 12 12 4 33 -11 33 -5 0 -12 -5 -16
-11z"/>
</g>
</svg>
